{
    "asset" : {
        "generator" : "Khronos glTF Blender I/O v1.7.33",
        "version" : "2.0"
    },
    "scene" : 0,
    "scenes" : [
        {
            "name" : "Scene",
            "nodes" : [
                0
            ]
        }
    ],
    "nodes" : [
        {
            "mesh" : 0,
            "name" : "ballon"
        }
    ],
    "materials" : [
        {
            "doubleSided" : true,
            "name" : "baloonMaterial",
            "pbrMetallicRoughness" : {
                "baseColorFactor" : [
                    0.8000000715255737,
                    0.011244029738008976,
                    0.808311932906508446,
                    1
                ],
                "metallicFactor" : 0,
                "roughnessFactor" : 0.3035087674856186
            }
        }
    ],
    "meshes" : [
        {
            "name" : "Sphere",
            "primitives" : [
                {
                    "attributes" : {
                        "POSITION" : 0,
                        "NORMAL" : 1,
                        "TEXCOORD_0" : 2
                    },
                    "indices" : 3,
                    "material" : 0
                }
            ]
        }
    ],
    "accessors" : [
        {
            "bufferView" : 0,
            "componentType" : 5126,
            "count" : 815,
            "max" : [
                1.02713942527771,
                1.0035079717636108,
                1.0271393060684204
            ],
            "min" : [
                -1.0271391868591309,
                -1.6289023160934448,
                -1.0271390676498413
            ],
            "type" : "VEC3"
        },
        {
            "bufferView" : 1,
            "componentType" : 5126,
            "count" : 815,
            "type" : "VEC3"
        },
        {
            "bufferView" : 2,
            "componentType" : 5126,
            "count" : 815,
            "type" : "VEC2"
        },
        {
            "bufferView" : 3,
            "componentType" : 5123,
            "count" : 3264,
            "type" : "SCALAR"
        }
    ],
    "bufferViews" : [
        {
            "buffer" : 0,
            "byteLength" : 9780,
            "byteOffset" : 0
        },
        {
            "buffer" : 0,
            "byteLength" : 9780,
            "byteOffset" : 9780
        },
        {
            "buffer" : 0,
            "byteLength" : 6520,
            "byteOffset" : 19560
        },
        {
            "buffer" : 0,
            "byteLength" : 6528,
            "byteOffset" : 26080
        }
    ],
    "buffers" : [
        {
            "byteLength" : 32608,
            "uri" : "data:application/octet-stream;base64,"
        }
    ]
}
